# xmcd
#
# Track frame offsets:
# 150
# 35932
# 54918
# 66881
# 97245
# 106747
# 125548
# 150100
# 164750
# 182377
#
# Disc length: 2598 seconds
#
#
# Revision: 1
# Processed by: cddbd v1.5.1PL0 Copyright (c) Steve Scherf et al.
# Submitted via: FreeRIP 2.91 
#
DISCID=800a240a
DTITLE=Weedeater - Sixteen Tons
DYEAR=2002
DGENRE=Suthern' Sludge
TTITLE0=Bull
TTITLE1=Potbelly
TTITLE2=Time Served
TTITLE3=Dummy
TTITLE4=#3
TTITLE5=Woe's Me
TTITLE6=Buzz
TTITLE7=Lines
TTITLE8=Riff
TTITLE9=Kira May
EXTD=
EXTT0=
EXTT1=
EXTT2=
EXTT3=
EXTT4=
EXTT5=
EXTT6=
EXTT7=
EXTT8=
EXTT9=
PLAYORDER=
